# xmcd
#
# Track frame offsets:
#	150
#	13932
#	35125
#	54747
#	70929
#	84991
#	106793
#	119816
#	136668
#	149460
#	165142
#	181725
#	200988
#
# Disc length: 2820 seconds
#
# Revision: 1
# Processed by: cddbd v1.5.2PL0 Copyright (c) Steve Scherf et al.
# Submitted via: audiograbber 1.83.01
#
DISCID=b80b020d
DTITLE=Gretchen Wilson - Right On Time
DYEAR=2013
DGENRE=Country
TTITLE0=Get Outta My Yard
TTITLE1=Still Rollin'
TTITLE2=Grandma
TTITLE3=Crazy
TTITLE4=The Well Run Dry
TTITLE5=The Gypsy In Me
TTITLE6=Dust and Bone
TTITLE7=Right On Time
TTITLE8=My Truck (feat. Josh Malter)
TTITLE9=One Good Friend
TTITLE10=I've Been In Love
TTITLE11=Hey Love
TTITLE12=Birds Of a Feather
EXTD=
EXTT0=
EXTT1=
EXTT2=
EXTT3=
EXTT4=
EXTT5=
EXTT6=
EXTT7=
EXTT8=
EXTT9=
EXTT10=
EXTT11=
EXTT12=
PLAYORDER=
